<?xml version="1.0" encoding="utf-8"?>
<!-- Generator: Adobe Illustrator 16.2.0, SVG Export Plug-In . SVG Version: 6.00 Build 0)  -->
<!DOCTYPE svg PUBLIC "-//W3C//DTD SVG 1.0//EN" "http://www.w3.org/TR/2001/REC-SVG-20010904/DTD/svg10.dtd">
<svg version="1.0" id="Layer_1" xmlns="http://www.w3.org/2000/svg" xmlns:xlink="http://www.w3.org/1999/xlink" x="0px" y="0px"
	 width="300px" height="300px" viewBox="0 0 300 300" enable-background="new 0 0 300 300" xml:space="preserve">
<g>
	<g>
		<path fill-rule="evenodd" clip-rule="evenodd" fill="#747E86" d="M138.895,81.925c-20.278-1.873-38.105,4.296-53.649,17.189
			c-16.877,13.999-26.881,32.123-30.378,53.633c-4.765,29.308,3.293,55.36,21.461,78.439c18.023,22.897,41.896,36.245,70.284,41.556
			c32.148,6.014,61.933-0.842,89.661-17.638c9.544-5.782,18.217-12.72,26.249-20.46c0.413-0.396,0.859-0.757,1.291-1.134
			c0.123,0.087,0.247,0.175,0.37,0.262c-0.666,0.984-1.215,2.077-2.015,2.936c-7.126,7.647-14.886,14.541-23.676,20.272
			c-15.566,10.149-32.375,17.264-50.743,20.153c-36.641,5.766-70.122-1.748-99.389-25.11
			c-20.543-16.397-34.317-37.431-39.858-63.207c-7.445-34.632,0.765-65.483,24.709-91.686
			c14.327-15.678,32.468-24.581,53.603-26.835c21.489-2.292,41.072,2.708,57.87,16.754c12.475,10.431,20.775,23.551,23.187,39.747
			c3.073,20.635-2.095,38.739-18.824,52.224c-11.312,9.118-24.286,12.143-38.494,7.932c-6.832-2.023-12.451-6.026-17.123-11.38
			c-0.413-0.474-0.819-0.953-1.354-1.575c-1.261,2.415-1.25,4.776-0.576,7.144c1.685,5.928,5.562,10.354,10.166,14.159
			c6.356,5.254,13.88,7.804,21.97,8.647c20.838,2.173,37.514-6.142,51.236-21.086c11.729-12.772,17.576-28.161,18.274-45.409
			c1.022-25.331-7.413-47.263-24.591-65.804c-14.993-16.184-33.691-25.737-55.186-29.964c-22.738-4.471-44.76-1.407-65.92,7.479
			C66.236,58.072,49.27,72.456,35.748,91.047C23.161,108.351,15.793,127.71,12.379,148.7c-0.362,2.225-0.701,4.455-1.01,6.687
			c-0.299,2.157-0.544,4.323-1.18,6.488c0-2.074-0.08-4.152,0.012-6.222c1.974-44.364,28.185-87.166,68.667-108.397
			c18.25-9.572,37.695-14.197,58.292-13.742c21.284,0.471,41.229,5.823,59.065,17.649c21.327,14.141,36.589,33.152,43.521,58.029
			c7.169,25.722,4.275,50.478-9.962,73.254c-11.418,18.269-27.735,30.344-48.977,35.262c-5.555,1.286-11.197,1.753-16.895,1.612
			c-0.633-0.017-1.266-0.002-2.302-0.002c6.345,1.134,17.906,0.32,25.494-2.008c28.275-8.671,46.889-27.466,55.601-55.42
			c10.178-32.651,3.845-62.833-16.455-90.064c-17.711-23.759-41.767-37.466-70.616-43.074c-30.894-6.006-59.802-0.224-86.984,15.126
			c-10.992,6.208-20.88,13.937-29.981,22.676c-0.333,0.32-0.683,0.621-1.041,0.913c-0.114,0.093-0.278,0.125-0.738-0.071
			c0.985-1.292,1.865-2.682,2.971-3.86c14.199-15.132,31.158-26.111,50.568-33.32c15.582-5.789,31.728-8.43,48.332-7.939
			c29.931,0.886,56.356,10.943,78.768,30.921c18.49,16.482,30.594,36.863,35.624,61.171c4.759,22.997,1.753,45.122-8.604,66.208
			c-10.164,20.693-25.94,35.566-47.068,44.661c-12.529,5.395-25.781,6.762-39.282,5.888c-18.25-1.181-33.763-8.722-46.542-21.496
			c-13.258-13.253-20.129-29.459-19.229-48.394c0.989-20.804,13.143-38.703,31.525-45.885c16.486-6.44,32.993-2.225,44.576,11.285
			c0.15,0.175,0.274,0.372,0.58,0.787c1.006-1.72,1.225-3.288,0.939-4.982c-1.478-8.768-6.877-14.678-14.28-18.829
			c-19.177-10.75-37.896-8.234-55.861,2.916c-13.949,8.657-22.732,21.607-27.926,36.943c-7.374,21.773-4.88,43.05,5.016,63.374
			c11.985,24.619,31.95,40.496,57.602,49.111c26.574,8.926,52.918,7,78.658-3.662c14.603-6.049,27.478-14.841,38.586-26.089
			c18.721-18.954,30.783-41.498,35.833-67.698c1.221-6.335,2.1-12.735,3.312-19.142c0,2.023,0.098,4.052-0.015,6.068
			c-1.743,31.162-12.629,58.609-33.851,81.629c-17.888,19.407-39.672,32.563-65.562,38.159c-34.479,7.451-66.24,0.803-94.285-20.699
			c-19.822-15.196-33.113-35.176-37.622-59.978c-5.548-30.511,1.331-57.872,23.512-80.389
			c12.847-13.042,28.569-20.434,46.883-22.087c1.497-0.135,3.008-0.118,4.513-0.141C136.007,81.907,137.451,81.925,138.895,81.925z"
			/>
	</g>
	<g>
		<path fill-rule="evenodd" clip-rule="evenodd" fill="#515E68" d="M135.8,0.036c1.69,0,3.384-0.088,5.068,0.012
			c42.935,2.542,78.25,20.112,105.167,53.826c14.956,18.732,23.935,40.171,26.642,64.002c2.947,25.984-0.986,50.9-14.148,73.742
			c-15.673,27.201-38.306,46.004-69.186,53.492c-24.226,5.875-47.639,3.041-69.715-8.975c-0.468-0.255-0.962-0.463-1.443-0.69
			c-0.104,0.225-0.208,0.449-0.311,0.674c5.356,2.451,10.59,5.234,16.093,7.294c19.226,7.198,38.81,7.37,58.528,2.214
			c26.428-6.91,46.891-22.288,62.326-44.536c13.583-19.578,20.315-41.469,20.854-65.219c0.82-36.127-11.235-67.475-35.839-93.863
			c-16.706-17.918-36.803-30.804-60.002-38.784c-0.511-0.176-1.007-0.396-1.379-0.986c1.862,0.567,3.741,1.083,5.583,1.71
			c19.518,6.642,36.726,17.11,51.542,31.431c20.607,19.917,34.669,43.657,40.066,71.923c8.743,45.779-3.065,85.462-37.353,117.5
			c-17.21,16.079-38.026,25.406-61.589,27.722c-24.966,2.453-48.311-2.763-68.703-17.661
			c-18.296-13.368-30.858-31.146-34.956-53.757c-4.473-24.684,1.062-47.076,18.739-65.443
			c12.117-12.589,27.074-19.693,44.931-18.507c18.382,1.221,32.678,9.388,40.259,26.815c5.077,11.675,3.157,25.9-6.064,34.401
			c-6.093,5.617-13.271,7.759-21.407,5.74c-5.194-1.289-8.271,2.728-7.191,7.169c0.976,4.006,3.206,7.223,6.5,9.641
			c8.874,6.516,18.758,7.347,28.999,4.47c13.896-3.902,23.901-12.864,30.177-25.613c9.619-19.533,8.496-39.264-1.057-58.433
			c-12.256-24.587-32.829-38.574-59.43-43.245c-32.384-5.686-60.5,4.291-84.354,26.239c-18.838,17.331-29.863,39.257-33.679,64.431
			c-6.178,40.762,6.136,75.95,33.696,106.137c11.507,12.605,25.184,22.395,40.43,29.87c6.721,3.296,13.904,5.716,21.015,8.137
			c10.795,3.676,22.027,5.271,33.363,6.188c1.51,0.123,3.016,0.316,4.533,0.938c-1.325,0-2.652,0.047-3.976-0.008
			c-21.837-0.879-42.579-6.218-61.702-16.71c-33.675-18.479-57.176-45.633-67.507-83.068c-7.749-28.077-6.251-55.959,5.888-82.507
			c14.769-32.292,39.133-54.279,74.051-62.929c24.202-5.996,47.64-2.959,69.685,9.124c0.415,0.229,0.86,0.4,1.293,0.597
			c0.086-0.179,0.174-0.358,0.261-0.538c-4.075-2.003-8.063-4.212-12.241-5.975c-20.295-8.565-41.125-9.226-62.258-3.727
			C79.286,61.249,58.73,76.906,43.163,99.38c-11.316,16.335-17.989,34.523-19.716,54.269c-3.478,39.723,7.84,74.729,35.008,104.144
			c16.664,18.043,36.868,30.908,60.114,38.935c0.517,0.178,1.02,0.398,1.529,0.599c-0.051,0.151-0.103,0.303-0.154,0.455
			c-3.114-1.035-6.281-1.93-9.334-3.124c-39.228-15.346-66.613-42.689-82.108-81.786c-5.493-13.86-8.147-28.431-8.467-43.359
			c-0.733-34.126,10.431-63.829,33.992-88.529c18.056-18.929,40.216-30.366,66.341-33.375c24.673-2.841,47.846,2.017,68.313,16.271
			c19.959,13.9,33.473,32.811,37.04,57.213c4.094,28.009-3.898,52.128-26.877,69.963c-10.676,8.288-23.034,12.503-36.623,11.685
			c-16.43-0.99-30.081-7.593-38.6-22.243c-6.128-10.537-6.858-21.731-0.958-32.714c5.291-9.851,15.658-14.292,26.461-11.85
			c4.543,1.027,8.007-2.334,7.04-6.94c-0.97-4.613-3.68-8.115-7.532-10.682c-9.124-6.083-19.093-6.725-29.179-3.4
			c-17.689,5.83-28.545,18.52-33.192,36.179c-6.169,23.448,0.021,44.372,15.125,62.759c13.456,16.383,31.281,25.449,52.035,28.461
			c29.348,4.26,55.26-4.235,77.749-23.046c21.199-17.729,33.484-40.862,37.756-67.949c6.032-38.253-4.735-72.004-29.37-101.473
			c-13.91-16.641-31.152-29.013-51.039-37.574c-6.363-2.74-12.979-5.052-19.673-6.831c-9.237-2.455-18.699-3.945-28.265-4.585
			c-1.589-0.105-3.172-0.316-4.758-0.479C135.813,0.26,135.807,0.148,135.8,0.036z"/>
	</g>
	<polygon fill="#FFCC61" points="18.914,102.49 22.596,109.95 30.829,111.146 24.872,116.953 26.278,125.152 18.914,121.281 
		11.551,125.152 12.957,116.953 7,111.146 15.233,109.95 	"/>
	<polygon fill="#FFCC61" points="261.766,186.294 265.225,193.301 272.957,194.424 267.362,199.879 268.683,207.581 
		261.766,203.945 254.85,207.581 256.17,199.879 250.576,194.424 258.309,193.301 	"/>
	<polygon fill="#FFCC61" points="195.889,36.376 199.888,44.48 208.831,45.78 202.36,52.088 203.888,60.995 195.889,56.79 
		187.889,60.995 189.417,52.088 182.947,45.78 191.89,44.48 	"/>
	<polygon fill="#FFCC61" points="201.783,264.473 206.693,274.419 217.671,276.016 209.728,283.758 211.603,294.691 
		201.783,289.529 191.964,294.691 193.839,283.758 185.896,276.016 196.874,274.419 	"/>
	<polygon fill="#FFCC61" points="89.501,237.29 92.732,243.833 99.952,244.883 94.728,249.977 95.961,257.167 89.501,253.771 
		83.042,257.167 84.276,249.977 79.051,244.883 86.272,243.833 	"/>
	<polygon fill="#FFCC61" points="33.756,257.318 35.991,261.846 40.987,262.572 37.373,266.096 38.226,271.072 33.756,268.725 
		29.287,271.072 30.14,266.096 26.525,262.572 31.521,261.846 	"/>
	<polygon fill="#FFCC61" points="58.932,10.308 62.297,17.126 69.821,18.22 64.377,23.527 65.663,31.022 58.932,27.484 52.2,31.022 
		53.486,23.527 48.042,18.22 55.566,17.126 	"/>
	<polygon fill="#FFCC61" points="120.991,42.808 123.226,47.335 128.222,48.062 124.607,51.586 125.46,56.563 120.991,54.213 
		116.522,56.563 117.374,51.586 113.76,48.062 118.757,47.335 	"/>
	<polygon fill="#FFCC61" points="290.77,223.615 293.004,228.143 298,228.869 294.385,232.393 295.237,237.37 290.77,235.021 
		286.3,237.37 287.152,232.393 283.537,228.869 288.534,228.143 	"/>
	<polygon fill="#FFCC61" points="259.121,1 261.782,6.393 267.732,7.256 263.428,11.454 264.444,17.381 259.121,14.583 
		253.799,17.381 254.814,11.454 250.51,7.256 256.46,6.393 	"/>
	<g>
		<g enable-background="new    ">
			<g>
				<path fill="#E44625" d="M160.325,209.094L34.053,174.906c-0.065,0.322-0.143,0.646-0.231,0.971
					c-0.089,0.326-0.19,0.652-0.305,0.98c-0.113,0.33-0.24,0.658-0.378,0.988c-0.139,0.33-0.29,0.662-0.454,0.992
					c-0.227,0.457-0.473,0.904-0.737,1.34c-0.265,0.438-0.547,0.863-0.847,1.278c-0.3,0.416-0.616,0.821-0.948,1.213
					c-0.333,0.394-0.681,0.772-1.043,1.14l129.757,36.174c-0.101-0.543-0.177-1.09-0.228-1.639c-0.051-0.547-0.078-1.096-0.08-1.645
					c-0.001-0.549,0.022-1.096,0.072-1.643c0.049-0.545,0.125-1.091,0.227-1.634c0.074-0.394,0.161-0.776,0.261-1.155
					c0.099-0.377,0.21-0.746,0.333-1.106c0.122-0.361,0.257-0.714,0.402-1.06C160.001,209.758,160.156,209.421,160.325,209.094
					 M135.169,107.085c-0.519,0.384-1.077,0.735-1.669,1.05c-0.594,0.315-1.221,0.593-1.874,0.832
					c-0.655,0.239-1.337,0.438-2.04,0.596c-0.703,0.157-1.425,0.271-2.162,0.339l39.101,92.817c0.762-0.418,1.563-0.773,2.396-1.064
					c0.833-0.289,1.698-0.516,2.589-0.67c0.891-0.156,1.808-0.244,2.745-0.258c0.937-0.014,1.894,0.047,2.864,0.184L135.169,107.085
					 M112.792,102.559l-85.59,59.101c0.716,0.291,1.383,0.636,1.999,1.029s1.184,0.836,1.695,1.32
					c0.515,0.486,0.975,1.016,1.377,1.582c0.405,0.567,0.753,1.174,1.042,1.809l84.264-59.521c-0.586-0.338-1.129-0.71-1.628-1.11
					c-0.498-0.4-0.95-0.827-1.354-1.278c-0.403-0.45-0.757-0.922-1.059-1.414C113.236,103.587,112.986,103.08,112.792,102.559"/>
				<g>
					<path fill="#68A8CC" d="M25.5,161.096c-1.93-0.505-3.963-0.613-5.996-0.377c-2.033,0.234-4.072,0.814-6.004,1.69
						c-1.94,0.878-3.781,2.058-5.409,3.489c-1.638,1.442-3.064,3.144-4.161,5.058c-1.107,1.931-1.774,3.897-2.028,5.801
						c-0.257,1.921-0.093,3.779,0.464,5.472c0.561,1.705,1.52,3.238,2.848,4.494c1.335,1.264,3.04,2.242,5.077,2.827
						c1.577,0.454,3.233,0.638,4.913,0.577c1.678-0.061,3.374-0.365,5.027-0.885c1.65-0.52,3.255-1.252,4.758-2.172
						c1.497-0.914,2.89-2.012,4.121-3.262c0.362-0.367,0.71-0.748,1.043-1.14c0.332-0.392,0.648-0.797,0.948-1.213
						c0.3-0.415,0.582-0.841,0.847-1.278c0.265-0.436,0.511-0.883,0.737-1.34c0.164-0.331,0.315-0.662,0.454-0.992
						c0.138-0.33,0.265-0.658,0.378-0.988c0.114-0.328,0.215-0.654,0.305-0.98c0.09-0.324,0.166-0.648,0.231-0.971
						c0.138-0.682,0.224-1.355,0.258-2.018c0.035-0.658,0.02-1.307-0.046-1.938c-0.063-0.629-0.177-1.243-0.336-1.838
						c-0.159-0.592-0.363-1.164-0.613-1.713c-0.288-0.637-0.637-1.241-1.042-1.81c-0.402-0.565-0.863-1.095-1.377-1.582
						c-0.512-0.485-1.079-0.928-1.695-1.321c-0.616-0.393-1.283-0.738-1.999-1.029c-0.136-0.055-0.271-0.107-0.41-0.158
						s-0.278-0.1-0.42-0.146c-0.143-0.047-0.286-0.092-0.432-0.136C25.796,161.175,25.649,161.135,25.5,161.096"/>
					<path fill="#68A8CC" d="M179.366,201.361c-0.189-0.049-0.378-0.096-0.565-0.139c-0.188-0.043-0.376-0.084-0.563-0.123
						c-0.187-0.037-0.374-0.072-0.56-0.104c-0.187-0.032-0.372-0.061-0.558-0.087c-0.971-0.138-1.928-0.197-2.864-0.183
						c-0.938,0.012-1.854,0.101-2.745,0.256c-0.891,0.156-1.756,0.381-2.589,0.672c-0.833,0.289-1.635,0.646-2.396,1.064
						c-0.654,0.358-1.28,0.764-1.875,1.211c-0.594,0.448-1.152,0.941-1.676,1.475c-0.522,0.533-1.009,1.109-1.452,1.725
						c-0.443,0.616-0.845,1.271-1.198,1.965c-0.168,0.327-0.324,0.664-0.471,1.008c-0.146,0.346-0.279,0.698-0.402,1.06
						c-0.123,0.362-0.234,0.729-0.333,1.106c-0.1,0.379-0.187,0.764-0.261,1.155c-0.103,0.542-0.178,1.087-0.227,1.634
						c-0.05,0.547-0.074,1.094-0.072,1.643c0.001,0.549,0.028,1.098,0.08,1.645c0.051,0.549,0.127,1.096,0.228,1.639
						c0.34,1.853,0.954,3.668,1.812,5.388c0.863,1.731,1.97,3.366,3.286,4.841c1.324,1.484,2.857,2.807,4.563,3.9
						c1.713,1.102,3.597,1.973,5.606,2.551c2.612,0.751,5.184,0.934,7.588,0.621c2.403-0.314,4.631-1.122,6.563-2.348
						c1.922-1.221,3.545-2.852,4.753-4.812c1.198-1.944,1.986-4.208,2.257-6.713c0.268-2.479,0.002-4.956-0.7-7.312
						c-0.693-2.332-1.816-4.545-3.274-6.527c-1.444-1.965-3.223-3.703-5.248-5.108C184.06,203.068,181.798,201.998,179.366,201.361"
						/>
					<path fill="#68A8CC" d="M128.946,90.099c-1.746-0.333-3.499-0.391-5.174-0.212c-1.676,0.179-3.279,0.595-4.729,1.214
						c-1.454,0.621-2.756,1.447-3.82,2.444c-1.07,1.003-1.903,2.181-2.407,3.5c-0.178,0.464-0.309,0.93-0.396,1.396
						c-0.087,0.467-0.13,0.933-0.129,1.396c0,0.464,0.043,0.924,0.127,1.378c0.084,0.456,0.21,0.904,0.375,1.344
						c0.194,0.521,0.443,1.028,0.746,1.518c0.302,0.491,0.655,0.964,1.059,1.414c0.404,0.451,0.856,0.878,1.354,1.278
						c0.499,0.4,1.042,0.771,1.628,1.11c0.337,0.195,0.688,0.378,1.052,0.549c0.364,0.172,0.741,0.331,1.13,0.478
						c0.39,0.146,0.792,0.279,1.206,0.398c0.415,0.119,0.84,0.224,1.276,0.313c0.435,0.09,0.87,0.162,1.306,0.218
						s0.871,0.095,1.305,0.118c0.435,0.023,0.865,0.03,1.294,0.022c0.43-0.008,0.855-0.033,1.277-0.072
						c0.736-0.068,1.459-0.183,2.162-0.339c0.703-0.157,1.384-0.356,2.04-0.596c0.654-0.239,1.281-0.517,1.874-0.832
						c0.593-0.314,1.15-0.666,1.669-1.05c0.438-0.326,0.85-0.675,1.228-1.045c0.376-0.371,0.722-0.763,1.028-1.175
						c0.307-0.411,0.577-0.842,0.808-1.29c0.229-0.447,0.419-0.912,0.565-1.394c0.415-1.364,0.438-2.725,0.132-4.019
						c-0.305-1.284-0.936-2.501-1.838-3.589c-0.896-1.081-2.059-2.035-3.438-2.801C132.283,91.01,130.697,90.433,128.946,90.099"/>
				</g>
				<path fill="#C3DCEB" d="M138.93,98.163c-0.305-1.284-0.936-2.501-1.838-3.589c-0.896-1.081-2.059-2.035-3.438-2.801
					c-1.371-0.763-2.958-1.34-4.709-1.674c-1.746-0.333-3.499-0.391-5.174-0.212c-1.676,0.179-3.279,0.595-4.729,1.214
					c-1.454,0.621-2.756,1.447-3.82,2.444c-0.663,0.621-1.221,1.317-1.68,2.064c0.855-0.646,1.816-1.201,2.861-1.647
					c1.45-0.619,3.055-1.035,4.729-1.214s3.427-0.121,5.174,0.212c1.751,0.334,3.337,0.912,4.709,1.674
					c1.378,0.766,2.542,1.72,3.438,2.801c0.901,1.087,1.532,2.305,1.838,3.589c0.308,1.293,0.283,2.655-0.132,4.019
					c-0.146,0.481-0.337,0.946-0.565,1.394c-0.097,0.188-0.205,0.373-0.316,0.555c0.396-0.3,0.773-0.614,1.118-0.952
					c0.376-0.371,0.722-0.763,1.028-1.175c0.307-0.411,0.577-0.842,0.808-1.29c0.229-0.447,0.419-0.912,0.565-1.394
					C139.213,100.817,139.237,99.456,138.93,98.163z"/>
				<path fill="#C3DCEB" d="M194.594,216.1c-0.693-2.332-1.816-4.545-3.274-6.527c-1.443-1.965-3.224-3.703-5.248-5.108
					c-2.012-1.396-4.272-2.466-6.705-3.103c-0.189-0.049-0.378-0.096-0.565-0.139c-0.188-0.043-0.376-0.084-0.563-0.123
					c-0.187-0.037-0.374-0.072-0.56-0.104c-0.187-0.032-0.372-0.061-0.558-0.087c-0.971-0.138-1.928-0.197-2.864-0.183
					c-0.938,0.012-1.854,0.101-2.745,0.256c-0.891,0.156-1.756,0.381-2.589,0.672c-0.833,0.289-1.635,0.646-2.396,1.064
					c-0.654,0.358-1.28,0.764-1.875,1.211c-0.594,0.448-1.152,0.941-1.676,1.475c-0.522,0.533-1.009,1.109-1.452,1.725
					c-0.031,0.044-0.06,0.092-0.091,0.137c0.192-0.16,0.382-0.322,0.582-0.474c0.593-0.448,1.219-0.853,1.875-1.212
					c0.761-0.418,1.563-0.773,2.396-1.064c0.833-0.289,1.697-0.516,2.589-0.67c0.891-0.156,1.808-0.244,2.745-0.258
					c0.937-0.014,1.894,0.047,2.863,0.184c0.187,0.025,0.372,0.055,0.559,0.086c0.186,0.033,0.373,0.067,0.56,0.104
					c0.188,0.037,0.375,0.078,0.563,0.122c0.188,0.043,0.376,0.09,0.564,0.139c2.433,0.637,4.694,1.707,6.706,3.104
					c2.024,1.404,3.804,3.145,5.248,5.107c1.458,1.981,2.581,4.195,3.274,6.527c0.701,2.355,0.967,4.833,0.698,7.313
					c-0.27,2.504-1.058,4.768-2.257,6.713c-0.173,0.279-0.372,0.537-0.562,0.804c1.249-1.036,2.334-2.263,3.199-3.666
					c1.198-1.944,1.986-4.208,2.257-6.713C195.561,220.934,195.295,218.455,194.594,216.1z"/>
				<path fill="#C3DCEB" d="M34.264,170.951c-0.063-0.629-0.177-1.243-0.336-1.838c-0.159-0.592-0.363-1.164-0.613-1.713
					c-0.288-0.637-0.637-1.241-1.042-1.81c-0.402-0.565-0.863-1.095-1.377-1.582c-0.512-0.485-1.079-0.928-1.695-1.321
					c-0.616-0.393-1.283-0.738-1.999-1.028c-0.136-0.056-0.271-0.108-0.41-0.159s-0.278-0.1-0.42-0.146
					c-0.143-0.047-0.286-0.092-0.432-0.135c-0.145-0.044-0.292-0.085-0.439-0.123c-1.93-0.506-3.963-0.613-5.996-0.379
					c-2.033,0.235-4.072,0.814-6.004,1.691c-1.94,0.878-3.781,2.058-5.409,3.49c-1.014,0.893-1.934,1.896-2.757,2.976
					c0.041-0.037,0.078-0.078,0.12-0.114c1.627-1.433,3.468-2.611,5.408-3.49c1.934-0.875,3.972-1.455,6.005-1.69
					c2.032-0.235,4.066-0.127,5.995,0.378c0.149,0.039,0.296,0.08,0.44,0.123s0.289,0.088,0.431,0.135
					c0.143,0.047,0.282,0.096,0.42,0.146c0.14,0.052,0.275,0.104,0.41,0.16c0.716,0.291,1.383,0.635,1.999,1.028
					c0.617,0.394,1.185,0.837,1.696,1.321c0.514,0.486,0.974,1.016,1.377,1.582c0.405,0.566,0.753,1.173,1.042,1.809
					c0.25,0.551,0.454,1.123,0.613,1.715c0.159,0.594,0.271,1.207,0.336,1.836c0.064,0.633,0.081,1.279,0.046,1.938
					c-0.034,0.662-0.12,1.335-0.258,2.017c-0.065,0.322-0.144,0.646-0.231,0.971c-0.089,0.326-0.19,0.654-0.305,0.982
					c-0.113,0.328-0.24,0.657-0.378,0.987c-0.14,0.33-0.29,0.662-0.454,0.992c-0.228,0.456-0.473,0.903-0.737,1.34
					c-0.265,0.438-0.547,0.862-0.847,1.278c-0.103,0.142-0.217,0.273-0.324,0.414c0.333-0.297,0.657-0.604,0.97-0.922
					c0.362-0.367,0.71-0.748,1.043-1.141c0.332-0.393,0.648-0.797,0.948-1.213c0.3-0.415,0.582-0.841,0.847-1.277
					s0.511-0.884,0.737-1.341c0.164-0.331,0.315-0.661,0.454-0.991c0.138-0.33,0.265-0.66,0.378-0.988
					c0.114-0.328,0.215-0.655,0.305-0.981c0.09-0.325,0.166-0.649,0.231-0.972c0.138-0.682,0.224-1.354,0.258-2.016
					C34.345,172.23,34.329,171.583,34.264,170.951z"/>
			</g>
		</g>
	</g>
	<g>
		<circle fill="#ACD9E5" cx="228.203" cy="128.322" r="31.688"/>
		<path fill="#9EC3CC" d="M217.448,154.988c1.59-1.643,1.775-4.365,1.372-6.563c-0.361-1.956-1.554-3.491-1.827-5.485
			c-0.147-1.07-1.823-1.574-2.61-2.133c-0.446-0.316-0.664-1.083-0.819-1.558c-0.238-0.736-0.041-1.671-0.764-2.223
			c-1.289-0.987-2.932-1.605-4.558-1.717c-1.812-0.126-3.507,0.718-5.308,0.619c-3.315-0.182-1.804-4.019-1.645-6.114
			c0.125-1.663,0.842-2.524,2.452-3.05c1.074-0.349,2.339-0.183,3.366-0.688c1.201-0.593,1.838-1.535,2.792-2.395
			c1.735-1.567,4.69-1.147,6.123-2.989c0.742-0.953,1.124-2.039,1.802-3.017c0.869-1.252,2.212-2.231,2.459-3.838
			c0.324-2.118-0.973-4.302,0.077-6.32c0.652-1.26,1.581-2.602,0.009-3.763c-0.707-0.522-1.593-0.924-2.23-1.538
			c-1.084-1.04-1.232-2.374-0.849-3.643c-10.214,3.759-18.222,12.674-20.279,24.16c-2.675,14.932,5.585,29.286,19.052,34.857
			C216.289,156.639,216.714,155.748,217.448,154.988z"/>
		<path fill="#9EC3CC" d="M237.122,128.734c-0.732-0.477-1.596-0.973-2.055-1.752c-1.164-1.984-1.223-4.27-1.224-6.517
			c-0.001-2.464,1.449-5.769,0.339-7.994c-0.811-2.329-4.879,1.163-5.877,2.022c-2.368,2.046-3.166,4.232-2.569,7.369
			c0.306,1.604,0.277,3.668,1.219,5.06c0.773,1.145,2.038,1.977,2.699,3.2c1.322,2.445,1.337,5.395,4.381,6.5
			c1.38,0.5,3.72,1.26,5.139,0.53c2.617-1.351-0.16-3.67-0.584-5.177C238.249,130.765,238.276,129.488,237.122,128.734z"/>
		<path fill="#9EC3CC" d="M251.944,107.347c-0.265,0.425-0.532,0.855-0.811,1.292c-1.945,3.044-4.232,4.091-7.558,5.016
			c-3.015,0.838-4.077,2.405-3.948,5.652c0.075,1.92-0.613,3.479-0.703,5.333c-0.078,1.632,1.9,2.33,2.485,3.705
			c0.804,1.889-0.609,3.86,2.169,4.897c1.845,0.689,5.102,1.178,5.253,3.718c0.236,3.947-2.321,2.967-5.071,4.063
			c-2.774,1.105-1.674,3.176-2.02,5.373c-0.058,0.364-0.363,0.557-0.56,0.834c-0.787,1.115-1.277,2.095-1.063,3.503
			c0.308,2.014,1.251,4.153,1.55,6.265c8.977-4.225,15.844-12.579,17.727-23.088C261.169,124.002,258.124,114.352,251.944,107.347z"
			/>
		<path fill="#2F892F" d="M237.122,134.78c-0.05-0.506-0.076-0.828,0.095-1.326c0.683-1.997-0.009-3.246-1.567-4.182
			c-0.746-0.448-1.477-1.085-1.761-1.942c-0.913-2.756,0.479-4.201,2.482-5.854c1.88-1.552-2.759-3.654-0.469-5.489
			c4.185-3.357-2.908-6.875-5.78-2.96c-1.319,1.802-2.143,4.021-1.91,6.276c0.143,1.419,0.273,2.811,0.049,4.229
			c-0.418,2.624,1.313,3.375,3.007,4.775c0.911,0.756,1.175,2.056,1.472,3.125c0.648,2.342,1.738,4.044,4.233,4.585
			c0.688,0.149,1.383,0.257,2.079,0.358C238.068,136.038,237.203,135.573,237.122,134.78z"/>
		<path fill="#2F892F" d="M250.093,105.415c-1.545,0.32-3.187,1.229-3.435,2.697c-0.128,0.769-0.288,1.744-0.834,2.347
			c-0.513,0.566-1.08,0.938-1.773,1.256c-1.701,0.779-2.087,2.102-2.39,3.822c-0.162,0.924-0.893,1.505-1.447,2.185
			c-1.01,1.246,1.007,3.061,1.391,4.249c0.38,1.175-0.593,2.479,0.531,3.534c0.502,0.471,0.854,0.915,1.19,1.522
			c0.365,0.657,0.311,1.349,0.187,2.058c-0.271,1.565,1.493,1.729,2.337,2.56c0.478,0.47,0.488,1.389,0.632,1.96
			c0.268,1.059,0.779,1.935,1.2,2.929c0.525,1.241,1.114,3.462-0.079,4.571c-1.086,1.009-6.769,2.31-3.703,4.651
			c0.239,0.182,0.204,0.575-0.036,0.736c-1.121,0.754-3.399,1.913-2.449,3.799c0.345,0.683,0.83,1.272,1.176,1.949
			c0.593,1.16,0.799,2.409,0.473,3.694c-0.038,0.148-0.09,0.289-0.133,0.436c8.354-4.394,14.671-12.451,16.465-22.461
			C261.338,123.056,257.504,112.507,250.093,105.415z"/>
		<path fill="#2F892F" d="M215.31,153.863c0.558-0.998,2.788-2.241,1.196-3.539c-0.535-0.438-0.875-0.826-1.149-1.459
			c-0.656-1.512,1.061-1.781-0.318-3.681c-0.896-1.232-1.937-2.339-2.734-3.638c-0.375-0.61-0.176-1.378-0.039-2.016
			c0.388-1.791-1.74-2.428-2.918-2.909c-0.775-0.316-1.668-0.716-2.482-0.294c-0.317,0.166-0.634,0.334-0.991,0.404
			c-0.64,0.126-1.579,0.388-2.219,0.058c-0.438-0.225-0.763-0.495-0.987-0.948c-0.65-1.313-1.176-2.337-2.261-3.362
			c-0.428-0.405-0.895-0.857-0.952-1.488c-0.085-0.927,0.873-1.746-0.146-2.51c-0.734-0.549-1.24-1.396-0.585-2.265
			c2.16-2.869,7.008-1.155,9.399-3.753c0.72-0.783,1.499-1.773,2.532-2.164c0.776-0.294,2.596-0.341,3.195-0.866
			c0.976-0.854,0.919-2.158,1.766-3.073c0.972-1.052,3.187-0.237,3.317-2.525c0.13-2.284-2.498-4.073-1.188-6.33
			c0.589-1.011,2.076-2.278,1.165-3.552c-0.531-0.744-1.125-1.45-1.597-2.237c-0.53-0.888-0.948-1.828-1.126-2.711
			c-9.684,3.98-17.193,12.661-19.177,23.729c-2.571,14.354,4.966,28.174,17.516,34.17
			C214.573,155.856,214.772,154.83,215.31,153.863z"/>
		<path opacity="0.25" d="M222.017,105.361c-5.712-1.023-11.348-0.637-16.561,0.895c-4.252,4.375-7.288,10.022-8.445,16.479
			c-3.085,17.226,8.377,33.693,25.604,36.779c10.519,1.884,20.749-1.664,27.828-8.63c0.325-1.147,0.599-2.321,0.813-3.521
			C254.781,127.689,241.689,108.885,222.017,105.361z"/>
	</g>
</g>
</svg>
