<?xml version="1.0" encoding="utf-8"?>
<!-- Generator: Adobe Illustrator 16.2.0, SVG Export Plug-In . SVG Version: 6.00 Build 0)  -->
<!DOCTYPE svg PUBLIC "-//W3C//DTD SVG 1.0//EN" "http://www.w3.org/TR/2001/REC-SVG-20010904/DTD/svg10.dtd">
<svg version="1.0" id="Layer_1" xmlns="http://www.w3.org/2000/svg" xmlns:xlink="http://www.w3.org/1999/xlink" x="0px" y="0px"
	 width="153.071px" height="195.591px" viewBox="0 0 153.071 195.591" enable-background="new 0 0 153.071 195.591"
	 xml:space="preserve">
<g>
	<path fill="#AEEA00" d="M130.179,9.207c-4.074-5.902-12.126-7.383-18.029-3.309c-5.896,4.068-7.367,12.124-3.298,18.027
		c3.04,4.398,8.291,6.329,13.212,5.337c-0.385,2.477-1.565,4.805-3.543,6.988c-3.895-4.105-10.146-5.044-14.995-2.1
		c-8.895-1.547-26.722-2.632-32.7-2.763c-6.186-0.136-12.373,0.469-18.671,1.775c-4.722-2.918-10.854-2.146-14.815,1.764
		c-1.902-2.245-3.01-4.611-3.311-7.099c4.887,1.151,10.199-0.61,13.377-4.907c4.262-5.766,3.057-13.861-2.707-18.122
		c-5.766-4.266-13.861-3.052-18.127,2.724c-4.257,5.75-3.041,13.841,2.725,18.106c0.488,0.364,0.997,0.684,1.516,0.97
		c-0.044,4.032,1.564,7.848,4.395,11.136c-2.693,4.827-1.824,10.868,2.115,14.636c-0.83,4.283-1.31,8.589-1.407,12.914
		c0,0.031-0.005,0.087-0.005,0.174c-0.15,7.039,0.699,14.078,2.448,21.12l0.011,0.02l0.033,0.136l0.052,0.18l0.011,0.049v-0.009
		c0.464,1.582,1.13,2.974,1.867,4.123c0.734,1.156,1.523,2.075,2.27,2.845l0.029,0.027l0.037,0.04
		c1.59,1.584,3.58,3.009,5.979,3.764l0.022,0.002l0.093,0.033l0.096,0.022l0,0c0.007,0,0.01,0,0.016,0l0.014,0.007h-0.004
		c6.857,1.897,13.623,2.938,20.416,3.08h0.007c6.8,0.148,28.972-0.244,35.914-1.845l0.047-0.006l0.062-0.016l0.085-0.02l0.022-0.008
		c2.428-0.647,4.479-1.985,6.133-3.494l0.041-0.043l0.026-0.02c0.781-0.741,1.615-1.627,2.399-2.75
		c0.787-1.109,1.516-2.47,2.043-4.021l0.025-0.072l0.041-0.132l0.031-0.102l0.014-0.033l0.012-0.047
		c2.041-6.889,3.197-13.815,3.375-20.797v-0.002l0.009-0.253c0-0.045,0-0.075,0-0.094c0.098-4.685-0.249-9.367-1.008-14.045
		c3.56-3.666,4.39-9.314,1.984-13.973c2.942-3.195,4.669-6.955,4.756-10.985c0.53-0.269,1.048-0.574,1.552-0.923
		C132.771,23.148,134.245,15.093,130.179,9.207z"/>
	<path fill="#EEFF41" d="M106.578,189.354c0,2.199-2.186,3.983-4.876,3.983H50.375c-2.693,0-4.871-1.784-4.871-3.983l0,0
		c0-2.199,2.178-3.979,4.871-3.979h51.327C104.392,185.375,106.578,187.155,106.578,189.354L106.578,189.354z"/>
	<path fill="#AEEA00" d="M115,121.437c-0.875-2.726-3.889-5.478-6.859-3.899c-0.473,0.282-0.877,0.626-1.221,1.027
		c-2.628-4.606-7.561-8.912-12.098-10.07c-1.389-0.361-2.787-0.682-4.189-0.963c0.16-0.424,0.248-0.859,0.248-1.323
		c0-2.649-2.862-4.787-6.373-4.787H67.574c-3.521,0-6.375,2.138-6.375,4.787c0,0.46,0.086,0.899,0.248,1.318
		c-1.404,0.286-2.807,0.602-4.196,0.968c-4.327,1.105-9.023,5.082-11.727,9.449c-0.183-0.148-0.378-0.281-0.581-0.406
		c-2.97-1.578-5.983,1.174-6.852,3.899c-1.688,5.821-2.092,11.402-1.252,17.417c0.411,2.468,2.451,5.188,5.076,5.064
		c-0.174,15.23,0.67,31.785,0.67,31.785c0.169,1.822,1.672,3.35,3.458,3.618c-0.347,0.539-0.54,1.16-0.54,1.824
		c0,2.192,2.178,3.97,4.871,3.97h51.327c2.69,0,4.876-1.777,4.876-3.97c0-0.664-0.195-1.285-0.541-1.824
		c1.785-0.271,3.286-1.796,3.457-3.618c0,0,0.85-16.688,0.67-31.975c3.096,0.994,5.617-2.102,6.083-4.875
		C117.085,132.839,116.681,127.258,115,121.437z"/>
	<path fill="#C6FF00" d="M150.005,163.389c-1.509-3.002-4.571-5.008-7.177-6.244c0.049-0.289,0.073-0.586,0.073-0.891
		c0-1.735-0.814-3.282-2.084-4.271c0.662-1.048,0.986-2.354,0.826-3.722c-0.005-0.069-0.022-0.143-0.04-0.198
		c1.376-2.388,1.606-5.776,0.377-9.025c0.429-4.065-1.777-8.877-5.989-12.203c-0.295-0.225-0.611-0.406-0.935-0.53
		c-2.335-3.196-6.591-5.479-11.58-5.795c-7.821-0.481-9.196,21.593-1.378,22.075c0.743,0.053,1.471,0.053,2.186,0.014
		c0.076,0.068,0.155,0.133,0.24,0.199c1.205,0.954,2.48,1.707,3.777,2.252c0.816,1.936,2.048,3.505,3.471,4.586
		c0.178,1.267,0.74,2.374,1.547,3.188c-0.764,0.93-1.223,2.126-1.223,3.431c0,0.446,0.055,0.888,0.154,1.305
		c-0.808,0.687-1.68,1.641-2.33,2.883c-1.877,3.561-1.154,8.551,2.588,9.736c3.742,1.17,6.01-1.884,4.607-3.791
		c-1.398-1.914-3.635,0.193-4.447-3.943c-0.254-1.293-0.029-2.316,0.386-3.113c0.979,1.404,2.601,2.328,4.442,2.328
		c1.398,0,2.666-0.53,3.623-1.398c2.245,1.946,4.504,5.08,1.898,7.488c-2.352,2.177-2.387,7.25,1.894,7.749
		C149.189,175.981,153.255,169.862,150.005,163.389z"/>
	<path fill="#C6FF00" d="M29.599,120.509c-4.984,0.315-9.246,2.599-11.58,5.795c-0.324,0.124-0.64,0.306-0.938,0.53
		c-4.207,3.326-6.413,8.138-5.986,12.203c-1.229,3.249-0.997,6.638,0.377,9.025c-0.016,0.056-0.035,0.129-0.043,0.198
		c-0.157,1.367,0.167,2.674,0.828,3.722c-1.27,0.989-2.086,2.536-2.086,4.271c0,0.305,0.029,0.602,0.076,0.891
		c-2.605,1.236-5.668,3.242-7.178,6.244c-3.251,6.474,0.818,12.593,5.096,12.108c4.278-0.499,4.242-5.572,1.891-7.749
		c-2.607-2.408-0.349-5.542,1.897-7.488c0.958,0.868,2.229,1.398,3.624,1.398c1.842,0,3.467-0.924,4.44-2.328
		c0.419,0.797,0.642,1.82,0.389,3.113c-0.808,4.137-3.05,2.029-4.452,3.943c-1.398,1.907,0.865,4.961,4.611,3.791
		c3.742-1.186,4.465-6.176,2.59-9.736c-0.654-1.242-1.524-2.196-2.332-2.883c0.102-0.417,0.16-0.858,0.16-1.305
		c0-1.305-0.467-2.501-1.228-3.431c0.806-0.814,1.369-1.922,1.547-3.188c1.421-1.081,2.651-2.65,3.476-4.586
		c1.291-0.545,2.567-1.298,3.777-2.252c0.082-0.066,0.159-0.131,0.234-0.199c0.715,0.039,1.447,0.039,2.187-0.014
		C38.797,142.102,37.419,120.027,29.599,120.509z"/>
	<path fill="#C6FF00" d="M118.521,36.251c-3.895-4.105-10.146-5.044-14.995-2.1c-8.895-1.547-26.722-2.632-32.7-2.763
		c-6.186-0.136-12.373,0.469-18.671,1.775c-4.722-2.918-10.854-2.146-14.815,1.764l-2.133,2.808
		c-2.693,4.827-1.824,10.868,2.115,14.636c-0.83,4.283-1.31,8.589-1.407,12.914c0,0.031-0.005,0.087-0.005,0.174
		c-0.15,7.039,0.699,14.078,2.448,21.12l0.011,0.02l0.033,0.136l0.052,0.18l0.011,0.049v-0.009c0.464,1.582,1.13,2.974,1.867,4.123
		c0.734,1.156,1.523,2.075,2.27,2.845l0.029,0.027l0.037,0.04c1.59,1.584,3.58,3.009,5.979,3.764l0.022,0.002l0.093,0.033
		l0.096,0.022l0,0c0.007,0,0.01,0,0.016,0l0.014,0.007h-0.004c6.857,1.897,13.623,2.938,20.416,3.08h0.007
		c6.8,0.148,28.972-0.244,35.914-1.845l0.047-0.006l0.062-0.016l0.085-0.02l0.022-0.008c2.428-0.647,4.479-1.985,6.133-3.494
		l0.041-0.043l0.026-0.02c0.781-0.741,1.615-1.627,2.399-2.75c0.787-1.109,1.516-2.47,2.043-4.021l0.025-0.072l0.041-0.132
		l0.031-0.102l0.014-0.033l0.012-0.047c2.041-6.889,3.197-13.815,3.375-20.797v-0.002l0.009-0.253c0-0.045,0-0.075,0-0.094
		c0.098-4.685-0.249-9.367-1.008-14.045c3.56-3.666,4.39-9.314,1.984-13.973L118.521,36.251z"/>
</g>
<g opacity="0.05">
	<path fill="#231F20" d="M37.757,83.993c0.187,0.862,0.387,1.724,0.601,2.586l0.011,0.02l0.033,0.136l0.052,0.18l0.011,0.049v-0.009
		c0.464,1.582,1.13,2.974,1.867,4.123c0.734,1.156,1.523,2.075,2.27,2.845l0.029,0.027l0.037,0.04
		c1.59,1.584,3.58,3.009,5.979,3.764l0.022,0.002l0.093,0.033l0.096,0.022c0.007,0,0.01,0,0.016,0l0.014,0.007h-0.004
		c6.857,1.897,13.623,2.938,20.416,3.08h0.007c6.8,0.148,28.972-0.244,35.914-1.845l0.047-0.006l0.062-0.016l0.085-0.02l0.022-0.008
		c2.428-0.647,4.479-1.985,6.133-3.494l0.041-0.043l0.026-0.02c0.781-0.741,1.615-1.627,2.399-2.75
		c0.787-1.109,1.516-2.47,2.043-4.021l0.025-0.072l0.041-0.132l0.031-0.102l0.014-0.033l0.012-0.047
		c2.041-6.889,3.197-13.815,3.375-20.797v-0.002l0.009-0.253c0-0.045,0-0.075,0-0.094c0.056-2.675-0.049-5.348-0.277-8.021
		c-17.224,15.089-45.474,24.929-77.406,24.929C40.512,84.053,39.132,84.03,37.757,83.993z"/>
</g>
<path opacity="0.05" fill="#231F20" d="M125.317,28.142c0.53-0.269,1.048-0.574,1.552-0.923c5.902-4.07,7.376-12.126,3.311-18.012
	c-0.221-0.32-0.459-0.622-0.703-0.916c-2.702,8.815-10.204,15.525-19.461,17.08c3.11,3.363,7.707,4.768,12.049,3.892L125.317,28.142
	z"/>
<path opacity="0.05" fill="#231F20" d="M34.029,27.829c4.887,1.151,10.199-0.61,13.377-4.907c3.281-4.439,3.31-10.254,0.523-14.643
	c-2.911,8.622-10.452,15.111-19.67,16.498c0.328,0.298,0.673,0.583,1.037,0.853c0.488,0.364,0.997,0.684,1.516,0.97L34.029,27.829z"
	/>
<g opacity="0.05">
	<path fill="#231F20" d="M42.142,164.083c0.199,6.813,0.443,11.62,0.443,11.62c0.169,1.822,1.672,3.35,3.458,3.618
		c-0.347,0.539-0.54,1.16-0.54,1.824c0,2.192,2.178,3.97,4.871,3.97h51.327c2.69,0,4.876-1.777,4.876-3.97
		c0-0.664-0.195-1.285-0.541-1.824c1.785-0.271,3.286-1.796,3.457-3.618c0,0,0.85-16.688,0.67-31.975
		c3.096,0.994,5.617-2.102,6.083-4.875c0.636-4.561,0.554-8.873-0.255-13.229C100.044,143.874,73.694,157.816,42.142,164.083z"/>
</g>
<g>
	<g>
		<circle fill="#EEFF41" cx="62.538" cy="60.678" r="5.875"/>
		<circle fill="#EEFF41" cx="94.538" cy="60.678" r="5.875"/>
	</g>
	<path fill="#FFFFFF" d="M64.379,57.124c-0.647,0.196-1.265,0.464-1.842,0.804c1.167,0.88,2.059,2.101,2.545,3.511
		c0.571-0.294,1.108-0.647,1.6-1.06C66.4,58.998,65.551,57.824,64.379,57.124z"/>
	<path fill="#FFFFFF" d="M96.879,57.124c-0.647,0.196-1.265,0.464-1.842,0.804c1.167,0.88,2.059,2.101,2.545,3.511
		c0.571-0.294,1.108-0.647,1.6-1.06C98.9,58.998,98.051,57.824,96.879,57.124z"/>
</g>
</svg>
